<?xml version="1.0" standalone="no"?>
<!DOCTYPE svg PUBLIC "-//W3C//DTD SVG 20010904//EN"
 "http://www.w3.org/TR/2001/REC-SVG-20010904/DTD/svg10.dtd">
<svg version="1.0" xmlns="http://www.w3.org/2000/svg"
 width="500.000000pt" height="500.000000pt" viewBox="0 0 500.000000 500.000000"
 preserveAspectRatio="xMidYMid meet">

<g transform="translate(0.000000,500.000000) scale(0.100000,-0.100000)"
fill="#000000" stroke="none">
<path d="M0 2500 l0 -2500 2500 0 2500 0 0 2500 0 2500 -2500 0 -2500 0 0
-2500z m1721 348 c124 -74 178 -206 140 -344 -23 -84 -111 -169 -201 -194
-130 -36 -273 29 -337 154 -22 42 -27 65 -27 126 -1 86 21 141 78 202 63 67
122 89 227 84 61 -2 85 -8 120 -28z m939 -178 c0 -15 -7 -20 -25 -20 -18 0
-25 5 -25 20 0 15 7 20 25 20 18 0 25 -5 25 -20z m800 -24 l0 -44 45 6 c69 7
75 -3 75 -119 0 -92 -1 -99 -20 -99 -19 0 -20 7 -20 90 l0 90 -40 0 -40 0 0
-90 c0 -83 -1 -90 -20 -90 -19 0 -20 7 -20 150 0 143 1 150 20 150 17 0 20 -7
20 -44z m-1437 2 c8 -13 27 -45 42 -72 l28 -50 36 72 c28 58 40 72 56 70 19
-3 20 -11 23 -140 2 -132 2 -138 -17 -138 -19 0 -21 8 -23 103 l-3 102 -30
-57 c-19 -38 -35 -58 -47 -58 -11 0 -28 20 -47 58 l-30 57 -1 -102 c0 -96 -1
-103 -20 -103 -19 0 -20 7 -20 140 0 133 1 140 20 140 11 0 26 -10 33 -22z
m947 -13 c0 -20 5 -25 25 -25 16 0 25 -6 25 -15 0 -9 -9 -15 -25 -15 -24 0
-25 -2 -25 -75 0 -73 1 -75 25 -75 18 0 25 -5 25 -20 0 -16 -7 -20 -33 -20
-49 0 -57 14 -57 102 0 61 -3 80 -15 84 -8 4 -15 12 -15 20 0 8 7 14 15 14 9
0 15 9 15 25 0 18 5 25 20 25 15 0 20 -7 20 -25z m-576 -41 c12 -12 16 -37 16
-110 0 -87 -1 -94 -20 -94 -11 0 -20 5 -20 12 0 9 -3 9 -12 0 -17 -17 -74 -15
-92 4 -9 8 -16 31 -16 49 0 46 22 65 76 65 40 0 44 2 44 25 0 23 -3 25 -50 25
-43 0 -50 3 -50 20 0 18 7 20 54 20 36 0 60 -5 70 -16z m186 -4 c0 -17 -7 -20
-45 -20 l-45 0 0 -70 0 -70 45 0 c38 0 45 -3 45 -20 0 -17 -7 -20 -49 -20 -71
0 -81 14 -81 110 0 96 10 110 81 110 42 0 49 -3 49 -20z m80 -90 l0 -110 -25
0 -25 0 0 110 0 110 25 0 25 0 0 -110z m90 98 c0 -9 3 -9 12 0 16 16 80 16 96
0 8 -8 12 -47 12 -110 0 -91 -1 -98 -20 -98 -19 0 -20 7 -20 90 l0 90 -35 0
-35 0 0 -90 c0 -89 0 -90 -25 -90 l-25 0 0 110 c0 103 1 110 20 110 11 0 20
-5 20 -12z m438 0 c16 -16 16 -180 0 -196 -18 -18 -108 -15 -130 5 -25 22 -26
157 -1 185 19 21 111 26 131 6z m190 -5 c-2 -14 -15 -19 -51 -21 -42 -3 -47
-5 -47 -28 0 -21 4 -24 39 -24 49 0 71 -21 71 -65 0 -50 -21 -65 -91 -65 -52
0 -60 2 -57 18 2 13 15 18 51 20 45 3 47 5 47 33 0 28 -2 29 -44 29 -48 0 -56
9 -56 65 0 43 19 54 88 55 46 0 53 -3 50 -17z m412 -238 c0 -12 -17 -15 -90
-15 -73 0 -90 3 -90 15 0 12 17 15 90 15 73 0 90 -3 90 -15z m-1220 -60 c0 -8
9 -15 20 -15 17 0 20 -6 19 -42 -2 -43 -2 -43 -8 -9 -8 48 -31 53 -31 7 0 -20
-4 -36 -10 -36 -5 0 -10 25 -10 55 0 30 5 55 10 55 6 0 10 -7 10 -15z m220
-40 c0 -30 -4 -55 -10 -55 -5 0 -10 25 -10 55 0 30 5 55 10 55 6 0 10 -25 10
-55z m290 0 c0 -54 0 -55 -30 -55 -28 0 -30 2 -30 40 0 33 3 40 20 40 11 0 20
7 20 15 0 8 5 15 10 15 6 0 10 -25 10 -55z m-930 15 c0 -25 -4 -30 -25 -30
-18 0 -25 -5 -25 -20 0 -11 -4 -20 -10 -20 -5 0 -10 23 -10 50 l0 50 35 0 c32
0 35 -2 35 -30z m239 -8 c-2 -21 1 -43 5 -50 4 -7 3 -12 -3 -12 -6 0 -15 9
-21 20 -6 11 -15 20 -20 20 -6 0 -10 -9 -10 -20 0 -11 -4 -20 -10 -20 -5 0
-10 23 -10 50 l0 50 35 0 c35 0 36 -1 34 -38z m483 13 c6 -13 15 -22 19 -19 5
3 9 1 9 -5 0 -19 -19 -21 -29 -4 -9 15 -10 13 -11 -14 0 -18 -4 -33 -10 -33
-5 0 -10 23 -10 50 0 54 14 65 32 25z m58 -25 c0 -27 -4 -50 -9 -50 -10 0 -20
68 -13 88 10 28 22 8 22 -38z m-710 -10 c0 -36 -3 -40 -24 -40 -16 0 -27 7
-31 20 -10 33 4 60 31 60 21 0 24 -4 24 -40z m53 33 c-7 -2 -13 -20 -13 -39 0
-19 -4 -34 -10 -34 -5 0 -10 18 -10 40 0 35 3 40 23 39 12 0 16 -3 10 -6z
m187 -33 c0 -36 -3 -40 -24 -40 -41 0 -42 43 -1 52 18 5 18 6 -5 16 l-25 11
28 0 c25 1 27 -2 27 -39z m78 2 c3 -27 -1 -35 -17 -39 -12 -3 -21 -12 -21 -19
0 -8 -4 -14 -10 -14 -5 0 -10 25 -10 56 0 54 0 55 28 52 23 -2 28 -8 30 -36z
m142 -2 c0 -36 -3 -40 -24 -40 -41 0 -42 43 -1 52 18 5 18 6 -5 16 l-25 11 28
0 c25 1 27 -2 27 -39z m74 24 c10 -26 7 -34 -14 -34 -25 0 -26 -17 -2 -23 10
-3 6 -5 -10 -6 -26 -1 -28 2 -28 39 0 36 3 40 24 40 13 0 27 -7 30 -16z m250
0 c10 -26 7 -34 -14 -34 -25 0 -26 -17 -2 -23 10 -3 6 -5 -10 -6 -26 -1 -28 2
-28 39 0 36 3 40 24 40 13 0 27 -7 30 -16z m146 -9 c0 -18 -5 -25 -20 -25 -27
0 -25 -18 3 -23 19 -4 19 -4 -5 -6 -19 -1 -29 5 -33 19 -10 33 4 60 31 60 19
0 24 -5 24 -25z m40 -15 c0 -22 -4 -40 -10 -40 -5 0 -10 18 -10 40 0 22 5 40
10 40 6 0 10 -18 10 -40z m43 33 c-7 -2 -13 -20 -13 -39 0 -19 -4 -34 -10 -34
-5 0 -10 18 -10 40 0 35 3 40 23 39 12 0 16 -3 10 -6z m72 -33 c0 -31 -3 -35
-25 -35 -19 0 -26 6 -28 23 -5 36 5 54 30 50 19 -2 23 -9 23 -38z m53 33 c-24
-6 -23 -19 3 -26 33 -9 20 -42 -16 -44 -20 -1 -23 0 -7 4 24 5 31 33 8 33 -8
0 -18 5 -21 10 -10 16 4 30 28 29 17 -1 18 -2 5 -6z"/>
<path d="M1508 2850 c-42 -12 -93 -47 -127 -86 -29 -33 -40 -64 -23 -64 4 0
15 -14 25 -31 15 -27 16 -36 6 -64 -11 -28 -10 -37 6 -61 12 -18 18 -48 19
-90 1 -46 6 -68 19 -81 16 -16 17 -16 17 9 0 17 14 38 44 66 24 22 52 54 62
71 l17 30 -52 50 c-29 28 -58 52 -64 52 -7 1 -23 2 -37 3 -20 1 -25 6 -25 26
0 14 -4 28 -9 31 -14 11 2 39 22 39 10 0 23 -5 30 -12 9 -9 12 -8 12 5 0 12
17 22 60 34 47 13 60 20 60 36 0 16 -5 19 -30 14 -17 -4 -30 -2 -30 3 0 16 66
11 80 -5 12 -14 15 -14 31 1 10 9 16 20 14 24 -6 10 -92 10 -127 0z"/>
<path d="M1630 2820 c0 -5 5 -10 10 -10 6 0 10 5 10 10 0 6 -4 10 -10 10 -5 0
-10 -4 -10 -10z"/>
<path d="M1720 2807 c0 -9 7 -20 17 -25 19 -11 11 -42 -12 -42 -8 0 -15 -5
-15 -10 0 -16 30 -24 42 -12 7 7 18 5 36 -4 18 -9 28 -10 31 -3 4 13 -46 76
-77 97 -20 13 -22 13 -22 -1z"/>
<path d="M1702 2779 c2 -7 10 -15 17 -17 8 -3 12 1 9 9 -2 7 -10 15 -17 17 -8
3 -12 -1 -9 -9z"/>
<path d="M1440 2703 c8 -3 19 -11 23 -17 6 -7 7 -6 4 4 -2 8 -12 16 -23 17
-13 2 -15 1 -4 -4z"/>
<path d="M1703 2682 c-30 -24 -40 -78 -17 -103 9 -10 27 -19 38 -19 50 -1 56
-29 28 -135 -6 -22 -9 -41 -7 -43 8 -9 59 56 81 103 23 49 31 123 18 171 -11
40 -102 57 -141 26z"/>
<path d="M2300 2461 c0 -29 3 -31 36 -31 33 0 35 2 32 28 -2 22 -8 28 -35 30
-31 3 -33 1 -33 -27z"/>
<path d="M3090 2500 l0 -70 35 0 35 0 0 70 0 70 -35 0 -35 0 0 -70z"/>
<path d="M3040 2240 c0 -16 5 -30 10 -30 6 0 10 14 10 30 0 17 -4 30 -10 30
-5 0 -10 -13 -10 -30z"/>
<path d="M2100 2270 c0 -15 5 -20 18 -18 9 2 17 10 17 18 0 8 -8 16 -17 18
-13 2 -18 -3 -18 -18z"/>
<path d="M2347 2284 c-14 -14 -7 -35 11 -32 9 2 17 10 17 17 0 16 -18 25 -28
15z"/>
<path d="M2180 2240 c0 -20 5 -30 15 -30 10 0 15 10 15 30 0 20 -5 30 -15 30
-10 0 -15 -10 -15 -30z"/>
<path d="M2420 2225 c0 -9 5 -15 11 -13 6 2 11 8 11 13 0 5 -5 11 -11 13 -6 2
-11 -4 -11 -13z"/>
<path d="M2500 2240 c0 -16 5 -30 10 -30 6 0 10 14 10 30 0 17 -4 30 -10 30
-5 0 -10 -13 -10 -30z"/>
<path d="M2640 2225 c0 -9 5 -15 11 -13 6 2 11 8 11 13 0 5 -5 11 -11 13 -6 2
-11 -4 -11 -13z"/>
<path d="M2717 2263 c-12 -11 -8 -23 8 -23 8 0 15 7 15 15 0 16 -12 20 -23 8z"/>
<path d="M2967 2263 c-12 -11 -8 -23 8 -23 8 0 15 7 15 15 0 16 -12 20 -23 8z"/>
<path d="M3110 2256 c0 -9 7 -16 16 -16 17 0 14 22 -4 28 -7 2 -12 -3 -12 -12z"/>
<path d="M3270 2240 c0 -16 5 -30 10 -30 6 0 10 14 10 30 0 17 -4 30 -10 30
-5 0 -10 -13 -10 -30z"/>
</g>
</svg>
